<?xml version="1.0" standalone="no"?>
<!DOCTYPE svg PUBLIC "-//W3C//DTD SVG 20010904//EN"
 "http://www.w3.org/TR/2001/REC-SVG-20010904/DTD/svg10.dtd">
<svg version="1.0" xmlns="http://www.w3.org/2000/svg"
 width="600.000000pt" height="600.000000pt" viewBox="0 0 600.000000 600.000000"
 preserveAspectRatio="xMidYMid meet">
<metadata>
Created by potrace 1.14, written by Peter Selinger 2001-2017
</metadata>
<g transform="translate(0.000000,600.000000) scale(0.100000,-0.100000)"
fill="#000000" stroke="none">
<path d="M1884 5580 c-82 -11 -165 -36 -251 -75 -387 -178 -823 -780 -1136
-1570 -138 -348 -197 -628 -232 -1095 -23 -310 -30 -607 -16 -735 38 -350 183
-778 362 -1072 118 -193 296 -376 449 -461 261 -145 882 -170 1290 -52 112 32
402 140 474 176 100 50 143 119 134 214 -14 141 -157 212 -298 148 -190 -87
-457 -173 -620 -200 -95 -16 -438 -15 -547 1 -188 27 -253 55 -355 151 -172
160 -320 436 -423 790 -64 221 -70 268 -70 550 0 475 46 883 131 1177 105 364
361 883 592 1203 100 139 316 354 398 398 91 47 174 66 263 58 88 -7 231 -44
236 -60 1 -6 8 -30 14 -54 15 -54 71 -117 118 -133 19 -6 62 -9 94 -7 47 3 66
10 96 35 62 49 77 84 81 190 4 85 2 98 -22 147 -53 108 -180 191 -366 240
-157 42 -272 52 -396 36z"/>
<path d="M5220 5208 c-19 -5 -50 -21 -68 -34 -32 -25 -72 -90 -72 -118 0 -8
-11 -38 -25 -68 -30 -64 -31 -118 -4 -178 19 -42 20 -57 13 -300 -7 -274 4
-545 36 -940 54 -645 62 -794 70 -1285 5 -302 13 -514 19 -536 6 -19 27 -54
47 -77 83 -98 236 -87 311 21 l28 40 -3 401 c-4 516 -22 856 -93 1686 -18 221
-22 653 -8 860 8 107 14 238 14 291 0 89 -3 100 -30 145 -47 75 -152 117 -235
92z"/>
<path d="M3405 4717 c-35 -16 -92 -77 -106 -114 -5 -13 -9 -50 -9 -81 0 -31
-9 -124 -20 -207 -68 -510 -100 -822 -100 -966 0 -57 -1 -59 -32 -68 -18 -5
-27 -10 -20 -10 6 -1 12 -5 12 -11 0 -6 -30 -10 -69 -10 -128 0 -358 -85 -419
-155 -62 -70 -64 -176 -5 -254 51 -67 96 -92 167 -93 57 -1 102 18 153 63 22
19 56 33 108 44 42 10 78 16 80 14 1 -2 6 -188 9 -414 4 -303 9 -428 20 -480
100 -478 204 -866 282 -1047 124 -290 340 -448 656 -479 133 -13 308 0 361 27
71 36 105 92 113 187 5 53 2 69 -18 107 -52 96 -157 132 -256 90 -47 -20 -63
-22 -142 -17 -120 9 -191 37 -255 101 -100 100 -162 284 -312 926 l-48 205 -3
438 -3 437 40 0 c63 0 270 -29 333 -47 103 -28 185 -3 237 73 77 112 20 263
-115 307 -67 22 -194 43 -344 57 -69 6 -127 13 -129 16 -17 17 76 846 104 933
10 29 15 87 15 166 0 140 -16 186 -83 239 -33 26 -48 31 -105 33 -41 2 -79 -2
-97 -10z"/>
<path d="M5345 1304 c-42 -11 -100 -36 -129 -57 -17 -12 -47 -29 -67 -38 -57
-26 -105 -75 -129 -131 -30 -70 -38 -183 -17 -241 8 -23 18 -66 22 -96 24
-202 243 -341 452 -287 177 45 280 157 315 346 24 129 -13 245 -102 322 -27
24 -50 47 -50 52 0 24 -58 81 -105 102 -50 23 -150 38 -190 28z"/>
</g>
</svg>
