<?xml version="1.0" encoding="utf-8"?>
<svg viewBox="593.175 4557.154 117.301 118.297" xmlns="http://www.w3.org/2000/svg">
  <g id="Pen" opacity="1.000">
    <path id="STROKE_640959ed-d8a4-48a6-a489-6440aae3dcb5" opacity="1.000" fill="none" stroke="#000000" stroke-opacity="1.000" stroke-linecap="round" stroke-linejoin="round" d="M 635.282 4573.153 C 635.361 4571.769 635.386 4571.292 635.354 4571.722 C 635.299 4570.857 634.68 4570.057 633.498 4569.323 C 632.317 4568.591 630.826 4568.077 629.025 4567.787 C 627.223 4567.495 625.435 4567.882 623.66 4568.947 C 621.884 4570.011 619.964 4572.097 617.896 4575.206 C 615.828 4578.314 613.809 4582.263 611.841 4587.056 C 609.871 4591.851 608.22 4596.677 606.891 4601.535 C 605.561 4606.394 604.718 4611.66 604.363 4617.331 C 604.007 4623.003 603.813 4627.501 603.78 4630.822 C 603.747 4634.141 604.001 4637.291 604.545 4640.272 C 605.09 4643.251 605.815 4646.262 606.725 4649.304 C 607.633 4652.344 608.74 4655.073 610.043 4657.494 C 611.344 4659.913 612.793 4661.834 614.389 4663.253 C 615.984 4664.677 618.864 4665.504 623.028 4665.739 C 627.192 4665.971 630.942 4665.28 634.281 4663.664 C 637.619 4662.045 639.467 4661.071 639.824 4660.741" style="stroke-width: 10px;"/>
    <path id="STROKE_ce934959-2670-4dc5-a7d1-7ae60f77bcb8" opacity="1.000" fill="none" stroke="#000000" stroke-opacity="1.000" stroke-linecap="round" stroke-linejoin="round" d="M 660.965 4586.776 C 660.964 4586.553 660.953 4585.964 660.931 4585.007 C 660.909 4584.053 660.902 4583.741 660.91 4584.076 C 660.92 4584.413 660.921 4584.48 660.918 4584.281 C 660.915 4584.082 660.914 4583.976 660.915 4583.962 C 660.916 4583.947 660.917 4583.795 660.916 4583.504 C 660.894 4583.504 660.873 4583.504 660.851 4583.504 C 660.947 4584.243 660.764 4587.2 660.301 4592.381 C 659.837 4597.56 659.516 4602.773 659.336 4608.021 C 659.156 4613.269 659.077 4617.315 659.101 4620.16 C 659.125 4623.004 659.134 4625.074 659.128 4626.371 C 659.122 4627.664 659.122 4628.708 659.122 4629.497 C 659.122 4630.284 659.131 4631.212 659.147 4632.279 C 659.162 4633.348 659.149 4634.083 659.106 4634.49 C 659.063 4634.896 659.099 4638.544 659.044 4642.713 C 658.989 4646.88 659.108 4652.008 659.158 4653.356 C 659.208 4654.705 659.444 4656.285 659.921 4657.992 C 660.398 4659.699 661.349 4661.428 662.364 4662.608 C 663.378 4663.785 666.269 4665.818 668.223 4665.756 C 670.177 4665.693 672.563 4663.246 673.339 4662.142 C 675.608 4660.183 676.723 4657.816 676.427 4658.267 C 676.131 4658.719 677.938 4651.799 677.167 4655.165" style="stroke-width: 10px;"/>
    <path id="STROKE_4e55d604-7101-4a28-82f6-67f7ed9e00bb" opacity="1.000" fill="none" stroke="#000000" stroke-opacity="1.000" stroke-linecap="round" stroke-linejoin="round" d="M 641.813 4619.669 C 641.593 4619.365 641.483 4619.208 641.476 4619.2 C 641.468 4619.187 641.452 4619.172 641.423 4619.155 C 641.394 4619.133 641.368 4619.121 641.344 4619.119 C 641.325 4619.115 641.394 4619.073 641.551 4618.995 C 641.713 4618.914 642.435 4618.648 643.717 4618.197 C 645.001 4617.744 646.209 4617.412 647.336 4617.194 C 648.464 4616.981 649.058 4616.878 649.115 4616.891 C 649.175 4616.902 651.322 4616.457 655.558 4615.558 C 659.792 4614.655 664.272 4614.442 669.004 4614.914 C 673.735 4615.388 676.308 4615.798 676.721 4616.147" style="stroke-width: 10px;"/>
    <path id="STROKE_3f77af43-c4e0-489e-82aa-40d37fc78aa8" opacity="1.000" fill="none" stroke="#000000" stroke-opacity="1.000" stroke-linecap="round" stroke-linejoin="round" d="M 695.485 4645.865 C 695.538 4646.118 696.41 4633.903 696.438 4633.043 C 696.516 4630.673 697.035 4625.188 697.245 4622.049 C 697.866 4612.753 698.166 4603.341 698.703 4598.77 C 699.24 4594.198 699.456 4590.493 699.456 4587.651 C 699.456 4584.81 699.456 4581.872 699.565 4578.839 C 699.565 4575.805 699.67 4574.199 699.995 4574.019" style="stroke-width: 10px;" transform="matrix(-1, -0.000139, 0.000139, -1, 1394.839192, 9219.985125)"/>
    <path id="STROKE_3f716f1a-5433-4175-8bea-a23879629a98" opacity="1.000" fill="none" stroke="#000000" stroke-opacity="1.000" stroke-linecap="round" stroke-linejoin="round" d="M 695.303 4662.277 C 695.322 4661.905 695.322 4661.751 695.303 4661.817 C 695.303 4661.972 695.284 4661.584 695.303 4660.651 C 695.342 4660.598 695.153 4660.548 694.777 4660.502 C 694.383 4660.457 694.008 4660.577 693.631 4660.864 C 693.256 4661.149 693.031 4661.397 692.918 4661.606 C 692.805 4661.817 692.767 4661.932 692.767 4661.954 C 692.767 4661.977 692.767 4661.985 692.767 4661.979 C 692.767 4661.973 692.673 4662.42 692.505 4663.321 C 692.316 4664.222 692.448 4664.831 692.88 4665.151 C 693.293 4665.47 693.726 4665.661 694.139 4665.722 C 694.571 4665.783 695.04 4665.709 695.585 4665.5 C 696.13 4665.292 696.524 4664.919 696.749 4664.385 C 696.975 4663.85 697.087 4663.327 697.051 4662.813 C 697.031 4662.299 696.6 4661.908 695.792 4661.637 C 694.966 4661.366 694.269 4661.233 693.707 4661.237 C 693.143 4661.242 692.749 4661.303 692.524 4661.419 C 692.28 4661.537 692.148 4661.722 692.11 4661.974 C 692.072 4662.228 692.054 4662.331 692.054 4662.281 C 692.054 4662.234 692.035 4662.307 692.016 4662.5 C 691.997 4662.694 692.054 4662.843 692.204 4662.949 C 692.336 4663.055 692.598 4663.16 692.975 4663.268 C 693.331 4663.373 693.65 4663.443 693.932 4663.474 C 694.196 4663.505 694.439 4663.512 694.646 4663.492 C 694.833 4663.474 695.003 4663.444 695.097 4663.406" style="stroke-width: 10px;"/>
  </g>
</svg>