<?xml version="1.0" encoding="utf-8"?>
<svg viewBox="593.175 4557.154 117.301 118.297" xmlns="http://www.w3.org/2000/svg">
  <g id="Pen" opacity="1.000">
    <path id="STROKE_640959ed-d8a4-48a6-a489-6440aae3dcb5" opacity="1.000" fill="none" stroke="#000000" stroke-width="6.800" stroke-opacity="1.000" stroke-linecap="round" stroke-linejoin="round" d="M 682.851 4567.166 C 683.034 4565.608 683.091 4565.071 683.019 4565.555 C 682.89 4564.581 681.448 4563.682 678.698 4562.856 C 675.948 4562.031 672.475 4561.454 668.283 4561.127 C 664.089 4560.799 659.926 4561.234 655.793 4562.432 C 651.659 4563.63 647.185 4565.978 642.37 4569.475 C 637.557 4572.972 632.857 4577.417 628.273 4582.81 C 623.687 4588.205 619.845 4593.635 616.749 4599.103 C 613.652 4604.569 611.689 4610.494 610.861 4616.876 C 610.034 4623.258 609.581 4628.319 609.504 4632.056 C 609.428 4635.792 610.022 4639.336 611.287 4642.689 C 612.554 4646.042 614.244 4649.43 616.361 4652.852 C 618.478 4656.273 621.053 4659.345 624.086 4662.068 C 627.119 4664.79 630.493 4666.952 634.207 4668.55 C 637.921 4670.15 644.625 4671.081 654.32 4671.345 C 664.014 4671.608 672.748 4670.83 680.519 4669.011 C 688.291 4667.19 692.594 4666.094 693.425 4665.722" style=""/>
    <path id="STROKE_ce934959-2670-4dc5-a7d1-7ae60f77bcb8" opacity="1.000" fill="none" stroke="#000000" stroke-width="6.800" stroke-opacity="1.000" stroke-linecap="round" stroke-linejoin="round" d="M 646.054 4585.678 C 646.053 4585.481 646.042 4584.96 646.02 4584.115 C 645.998 4583.273 645.991 4582.998 645.999 4583.294 C 646.009 4583.591 646.01 4583.65 646.007 4583.475 C 646.004 4583.299 646.003 4583.205 646.004 4583.193 C 646.005 4583.18 646.006 4583.045 646.005 4582.789 C 645.983 4582.789 645.962 4582.789 645.94 4582.789 C 646.036 4583.44 645.853 4586.052 645.39 4590.626 C 644.926 4595.198 644.605 4599.801 644.425 4604.434 C 644.245 4609.068 644.166 4612.64 644.19 4615.151 C 644.214 4617.663 644.223 4619.49 644.217 4620.634 C 644.211 4621.777 644.211 4622.698 644.211 4623.395 C 644.211 4624.09 644.22 4624.91 644.236 4625.851 C 644.251 4626.794 644.238 4627.444 644.195 4627.803 C 644.152 4628.162 644.188 4631.382 644.133 4635.062 C 644.078 4638.742 644.197 4643.27 644.247 4644.46 C 644.297 4645.65 644.533 4647.045 645.01 4648.552 C 645.487 4650.059 646.438 4651.586 647.453 4652.628 C 648.467 4653.667 651.358 4655.462 653.312 4655.407 C 655.266 4655.352 657.652 4653.191 658.428 4652.217 C 660.697 4650.486 661.812 4648.397 661.516 4648.796 C 661.22 4649.195 663.027 4643.085 662.256 4646.056" style=""/>
    <path id="STROKE_4e55d604-7101-4a28-82f6-67f7ed9e00bb" opacity="1.000" fill="none" stroke="#000000" stroke-width="6.800" stroke-opacity="1.000" stroke-linecap="round" stroke-linejoin="round" d="M 626.902 4615.272 C 626.682 4614.999 626.572 4614.858 626.565 4614.851 C 626.557 4614.84 626.541 4614.826 626.512 4614.81 C 626.483 4614.791 626.457 4614.78 626.433 4614.778 C 626.414 4614.775 626.483 4614.737 626.64 4614.667 C 626.802 4614.594 627.524 4614.355 628.806 4613.95 C 630.09 4613.543 631.298 4613.245 632.425 4613.049 C 633.553 4612.858 634.147 4612.765 634.204 4612.777 C 634.264 4612.787 636.411 4612.387 640.647 4611.579 C 644.881 4610.768 649.361 4610.577 654.093 4611.002 C 658.824 4611.427 661.397 4611.796 661.81 4612.109" style=""/>
    <path id="STROKE_3f77af43-c4e0-489e-82aa-40d37fc78aa8" opacity="1.000" fill="none" stroke="#000000" stroke-width="6.800" stroke-opacity="1.000" stroke-linecap="round" stroke-linejoin="round" d="M 673.297 4634.307 C 673.976 4635.045 674.188 4635.345 673.933 4635.206 C 673.891 4634.856 673.976 4635.213 674.231 4636.279 C 674.273 4636.277 674.316 4636.261 674.443 4636.229 C 674.57 4634.861 674.57 4634.44 674.528 4634.962 C 674.443 4635.483 674.273 4633.634 674.018 4629.413 C 673.806 4625.192 673.976 4620.101 674.613 4614.137 C 675.207 4608.171 675.632 4603.71 675.844 4600.748 C 676.056 4597.786 676.141 4595.385 676.141 4593.544 C 676.141 4591.703 676.141 4589.799 676.184 4587.834 C 676.184 4585.868 676.226 4584.828 676.354 4584.711" style="" transform="matrix(-1, 0, 0, -1, 1349.651001, 9220.989746)"/>
    <path id="STROKE_3f716f1a-5433-4175-8bea-a23879629a98" opacity="1.000" fill="none" stroke="#000000" stroke-width="6.800" stroke-opacity="1.000" stroke-linecap="round" stroke-linejoin="round" d="M 674.466 4647.854 C 674.487 4647.442 674.487 4647.273 674.466 4647.346 C 674.466 4647.517 674.446 4647.088 674.466 4646.057 C 674.508 4645.998 674.301 4645.943 673.887 4645.892 C 673.453 4645.842 673.04 4645.975 672.626 4646.292 C 672.213 4646.608 671.965 4646.882 671.841 4647.113 C 671.717 4647.345 671.675 4647.473 671.675 4647.498 C 671.675 4647.523 671.675 4647.532 671.675 4647.525 C 671.675 4647.518 671.572 4648.013 671.386 4649.008 C 671.179 4650.004 671.324 4650.678 671.799 4651.031 C 672.254 4651.384 672.73 4651.595 673.185 4651.662 C 673.66 4651.73 674.177 4651.648 674.776 4651.417 C 675.376 4651.187 675.81 4650.775 676.058 4650.184 C 676.306 4649.593 676.43 4649.014 676.389 4648.446 C 676.368 4647.879 675.893 4647.446 675.004 4647.146 C 674.094 4646.847 673.329 4646.7 672.709 4646.705 C 672.089 4646.71 671.655 4646.777 671.407 4646.906 C 671.138 4647.035 670.993 4647.24 670.952 4647.519 C 670.91 4647.799 670.89 4647.913 670.89 4647.859 C 670.89 4647.806 670.869 4647.887 670.848 4648.101 C 670.828 4648.314 670.89 4648.48 671.055 4648.597 C 671.2 4648.714 671.489 4648.831 671.903 4648.949 C 672.296 4649.066 672.647 4649.143 672.957 4649.177 C 673.247 4649.212 673.515 4649.219 673.743 4649.198 C 673.949 4649.177 674.136 4649.145 674.239 4649.102" style=""/>
  </g>
</svg>