<?xml version="1.0" encoding="utf-8"?>
<svg viewBox="0 0 133.016 133.018" xmlns="http://www.w3.org/2000/svg">
  <g id="Pen" opacity="1.000" transform="matrix(1, 0, 0, 1, -607.372742, -4540.82373)">
    <path id="STROKE_640959ed-d8a4-48a6-a489-6440aae3dcb5" opacity="1.000" fill="none" stroke="#000000" stroke-opacity="1.000" stroke-linecap="round" stroke-linejoin="round" d="M 664.496 4554.664 Q 664.687 4552.154 664.613 4552.934 Q 664.478 4551.364 661.625 4550.035 Q 658.772 4548.706 654.423 4548.178 Q 650.074 4547.650 645.787 4549.580 Q 641.500 4551.511 636.507 4557.144 Q 631.515 4562.776 626.759 4571.466 Q 622.003 4580.155 618.791 4588.962 Q 615.579 4597.769 614.720 4608.050 Q 613.862 4618.332 613.782 4624.352 Q 613.702 4630.372 615.015 4635.772 Q 616.328 4641.173 618.523 4646.686 Q 620.719 4652.199 623.864 4656.584 Q 627.010 4660.970 630.862 4663.546 Q 634.714 4666.122 644.769 4666.547 Q 654.824 4666.972 662.884 4664.040 Q 670.945 4661.108 671.807 4660.508 " style="stroke-width: 12px;"/>
    <path id="STROKE_ce934959-2670-4dc5-a7d1-7ae60f77bcb8" opacity="1.000" fill="none" stroke="#000000" stroke-opacity="1.000" stroke-linecap="round" stroke-linejoin="round" d="M 682.407 4572.194 C 682.406 4571.931 682.382 4571.239 682.336 4570.116 C 682.289 4568.994 682.275 4568.63 682.294 4569.024 C 682.312 4569.417 682.317 4569.497 682.31 4569.264 C 682.303 4569.03 682.301 4568.905 682.304 4568.888 C 682.306 4568.871 682.307 4568.692 682.306 4568.351 C 682.26 4568.351 682.215 4568.351 682.17 4568.351 C 682.369 4569.218 681.987 4572.692 681.023 4578.774 C 680.059 4584.855 679.39 4590.977 679.016 4597.139 C 678.64 4603.301 678.477 4608.052 678.527 4611.393 C 678.575 4614.733 678.594 4617.164 678.583 4618.685 C 678.571 4620.206 678.567 4621.429 678.569 4622.356 C 678.571 4623.283 678.588 4624.372 678.621 4625.624 C 678.654 4626.876 678.626 4627.741 678.537 4628.219 C 678.447 4628.697 678.88 4630.928 679.835 4634.912 C 680.789 4638.896 681.824 4642.907 682.938 4646.946 C 684.052 4650.985 685.227 4654.309 686.463 4656.918 C 687.699 4659.527 689.373 4661.524 691.487 4662.909 C 693.599 4664.294 695.967 4665.12 698.589 4665.388 C 701.211 4665.655 703.826 4665.616 706.434 4665.271 C 706.434 4665.228 706.445 4665.152 706.468 4665.042 C 706.49 4664.931 706.524 4664.787 706.569 4664.609" style="stroke-width: 12px;"/>
    <path id="STROKE_4e55d604-7101-4a28-82f6-67f7ed9e00bb" opacity="1.000" fill="none" stroke="#000000" stroke-opacity="1.000" stroke-linecap="round" stroke-linejoin="round" d="M 664.931 4608.081 C 664.745 4607.772 664.649 4607.612 664.644 4607.601 C 664.638 4607.59 664.623 4607.575 664.599 4607.555 C 664.573 4607.536 664.552 4607.524 664.534 4607.521 C 664.516 4607.517 664.574 4607.474 664.71 4607.393 C 664.845 4607.312 665.459 4607.042 666.551 4606.581 C 667.643 4606.12 668.67 4605.78 669.63 4605.56 C 670.589 4605.34 671.094 4605.236 671.144 4605.249 C 671.194 4605.262 673.019 4604.809 676.621 4603.891 C 680.223 4602.972 684.036 4602.754 688.061 4603.236 C 692.085 4603.717 694.273 4604.136 694.624 4604.492" style="stroke-width: 12px;"/>
    <path id="STROKE_3f77af43-c4e0-489e-82aa-40d37fc78aa8" opacity="1.000" fill="none" stroke="#000000" stroke-opacity="1.000" stroke-linecap="round" stroke-linejoin="round" d="M 725.388 4561.887 C 726.277 4560.8 726.562 4560.359 726.244 4560.564 C 726.171 4561.079 726.294 4560.551 726.616 4558.983 C 726.668 4558.985 726.769 4559.009 726.919 4559.055 C 727.074 4561.069 727.102 4561.691 727.005 4560.923 C 726.908 4560.155 726.696 4562.877 726.368 4569.093 C 726.041 4575.308 726.296 4582.807 727.131 4591.591 C 727.968 4600.376 728.526 4606.948 728.802 4611.309 C 729.079 4615.67 729.214 4619.206 729.207 4621.918 C 729.201 4624.629 729.208 4627.433 729.229 4630.328 C 729.249 4633.222 729.33 4634.755 729.471 4634.927" style="stroke-width: 12px;"/>
    <path id="STROKE_3f716f1a-5433-4175-8bea-a23879629a98" opacity="1.000" fill="none" stroke="#000000" stroke-opacity="1.000" stroke-linecap="round" stroke-linejoin="round" d="M 730.37 4657.986 C 730.42 4657.154 730.425 4656.811 730.386 4656.959 C 730.35 4657.305 730.349 4656.437 730.383 4654.353 C 730.437 4654.232 730.068 4654.121 729.276 4654.02 C 728.485 4653.918 727.706 4654.188 726.938 4654.828 C 726.171 4655.468 725.678 4656.021 725.458 4656.489 C 725.239 4656.957 725.132 4657.216 725.138 4657.266 C 725.144 4657.316 725.145 4657.335 725.14 4657.321 C 725.135 4657.307 724.953 4658.306 724.593 4660.32 C 724.234 4662.333 724.49 4663.697 725.362 4664.411 C 726.234 4665.124 727.105 4665.549 727.975 4665.686 C 728.845 4665.822 729.84 4665.657 730.961 4665.191 C 732.083 4664.724 732.879 4663.893 733.349 4662.697 C 733.82 4661.501 734.029 4660.33 733.976 4659.184 C 733.924 4658.037 733.055 4657.161 731.367 4656.555 C 729.68 4655.95 728.254 4655.653 727.09 4655.663 C 725.927 4655.672 725.106 4655.807 724.627 4656.069 C 724.149 4656.33 723.873 4656.743 723.8 4657.309 C 723.727 4657.875 723.684 4658.104 723.672 4657.997 C 723.661 4657.889 723.636 4658.052 723.596 4658.485 C 723.556 4658.917 723.683 4659.251 723.976 4659.488 C 724.269 4659.724 724.795 4659.962 725.555 4660.2 C 726.315 4660.438 726.977 4660.592 727.541 4660.662 C 728.105 4660.732 728.594 4660.746 729.007 4660.704 C 729.42 4660.661 729.733 4660.596 729.947 4660.51" style="stroke-width: 12px;"/>
  </g>
</svg>