<?xml version="1.0" encoding="UTF-8" standalone="yes"?>
<svg xmlns="http://www.w3.org/2000/svg" xmlns:xlink="http://www.w3.org/1999/xlink" width="602.709045pt" height="220.668213pt" version="1.1" viewBox="584.529846 4540.947266 602.709045 220.667969">
  <!--
	Exported with Concepts: Smarter Sketching
	Version: 873 on iOS 14.0
	https://concepts.app/
	-->
  <title>Untitled 24</title>
  <desc>Drawing exported from Concepts: Smarter Sketching</desc>
  <g id="Pen" opacity="1.000">
    <path id="STROKE_640959ed-d8a4-48a6-a489-6440aae3dcb5" opacity="1.000" fill="none" stroke="#000000" stroke-width="6.800" stroke-opacity="1.000" stroke-linecap="round" stroke-linejoin="round" d="M 664.496 4554.664 Q 664.687 4552.154 664.613 4552.934 Q 664.478 4551.364 661.625 4550.035 Q 658.772 4548.706 654.423 4548.178 Q 650.074 4547.650 645.787 4549.580 Q 641.500 4551.511 636.507 4557.144 Q 631.515 4562.776 626.759 4571.466 Q 622.003 4580.155 618.791 4588.962 Q 615.579 4597.769 614.720 4608.050 Q 613.862 4618.332 613.782 4624.352 Q 613.702 4630.372 615.015 4635.772 Q 616.328 4641.173 618.523 4646.686 Q 620.719 4652.199 623.864 4656.584 Q 627.010 4660.970 630.862 4663.546 Q 634.714 4666.122 644.769 4666.547 Q 654.824 4666.972 662.884 4664.040 Q 670.945 4661.108 671.807 4660.508 "></path>
    <path id="STROKE_0dc4ad24-2f5a-402e-95f5-8b480fa58ff6" opacity="1.000" fill="none" stroke="#000000" stroke-width="6.356" stroke-opacity="1.000" stroke-linecap="round" stroke-linejoin="round" d="M 695.545 4552.893 Q 695.753 4552.037 695.020 4548.479 Q 695.717 4549.056 694.503 4666.239 Q 695.796 4666.890 695.791 4666.854 Q 695.122 4666.413 696.930 4666.959 Q 698.738 4667.506 709.336 4665.832 Q 719.934 4664.158 729.007 4662.120 Q 738.080 4660.081 745.671 4654.958 Q 745.295 4654.829 744.918 4654.698 "></path>
    <path id="STROKE_6539648f-e725-4e44-9c36-8fcef975736e" opacity="1.000" fill="none" stroke="#000000" stroke-width="6.330" stroke-opacity="1.000" stroke-linecap="round" stroke-linejoin="round" d="M 766.068 4550.504 Q 765.621 4549.352 765.684 4549.468 Q 765.599 4549.313 765.492 4548.740 Q 765.438 4547.968 765.512 4559.852 Q 765.586 4571.735 765.827 4587.741 Q 766.068 4603.748 766.113 4613.648 Q 766.158 4623.549 767.240 4668.338 Q 767.161 4669.072 767.489 4666.013 Q 767.816 4662.954 768.072 4661.902 "></path>
    <path id="STROKE_e556dbf1-d086-4072-a230-6c3538ae9c3e" opacity="1.000" fill="none" stroke="#000000" stroke-width="5.890" stroke-opacity="1.000" stroke-linecap="round" stroke-linejoin="round" d="M 798.505 4552.039 Q 798.511 4551.821 798.364 4550.824 Q 798.400 4550.183 797.761 4550.504 Q 797.123 4550.825 796.503 4552.813 Q 795.884 4554.803 795.594 4556.894 Q 795.305 4558.984 795.382 4568.441 Q 795.459 4577.898 796.250 4584.514 Q 797.041 4591.130 797.466 4596.223 Q 797.891 4601.316 802.176 4667.532 Q 802.327 4667.500 801.626 4663.994 Q 800.925 4660.488 800.496 4658.993 "></path>
    <path id="STROKE_e962ae44-f48f-44f2-8cd8-1e213f9191e1" opacity="1.000" fill="none" stroke="#000000" stroke-width="6.783" stroke-opacity="1.000" stroke-linecap="round" stroke-linejoin="round" d="M 795.577 4560.017 Q 795.555 4559.772 795.600 4560.042 Q 795.646 4560.311 795.587 4556.914 Q 795.529 4553.517 795.726 4552.037 Q 795.923 4550.557 797.005 4549.687 Q 798.088 4548.815 798.542 4548.770 Q 798.995 4548.725 799.402 4548.665 Q 799.809 4548.606 804.180 4548.367 Q 808.552 4548.127 814.915 4548.973 Q 821.278 4549.817 826.129 4553.270 Q 830.981 4556.723 833.548 4560.081 Q 836.115 4563.438 837.212 4565.900 Q 838.309 4568.362 838.422 4572.410 Q 838.535 4576.458 838.094 4579.675 Q 837.652 4582.892 831.485 4589.502 Q 825.319 4596.113 815.726 4602.554 Q 806.133 4608.996 788.211 4611.075 Q 792.812 4610.400 791.989 4610.578 Q 791.165 4610.756 799.964 4607.799 Q 808.763 4604.842 810.957 4604.044 "></path>
    <path id="STROKE_b07a20b2-498a-4deb-b11c-3e3dc8cb3edb" opacity="1.000" fill="none" stroke="#000000" stroke-width="6.649" stroke-opacity="1.000" stroke-linecap="round" stroke-linejoin="round" d="M 893.841 4561.208 Q 894.551 4561.397 892.084 4560.704 Q 891.759 4558.705 891.843 4559.088 Q 891.652 4557.149 891.632 4556.957 Q 891.612 4556.765 891.572 4556.825 Q 891.338 4556.070 890.829 4555.015 Q 890.320 4553.959 890.277 4553.954 Q 890.235 4553.948 890.429 4554.141 Q 890.623 4554.333 889.179 4552.748 Q 887.736 4551.163 885.581 4550.131 Q 883.426 4549.099 879.292 4548.513 Q 875.157 4547.927 871.057 4548.878 Q 866.956 4549.829 863.414 4551.974 Q 859.871 4554.118 857.544 4557.960 Q 855.217 4561.802 854.815 4566.147 Q 854.412 4570.492 854.587 4574.360 Q 854.762 4578.228 861.299 4587.183 Q 867.836 4596.138 871.906 4600.991 Q 875.975 4605.843 882.086 4614.199 Q 888.196 4622.556 891.980 4628.136 Q 895.764 4633.715 897.404 4637.565 Q 899.044 4641.415 899.809 4646.351 Q 900.575 4651.287 897.573 4655.115 Q 894.571 4658.944 891.991 4661.020 Q 889.411 4663.095 884.720 4665.330 Q 880.029 4667.564 873.474 4667.278 Q 866.918 4666.992 863.106 4666.825 Q 859.294 4666.659 856.252 4663.994 Q 856.402 4663.680 863.044 4662.831 Q 869.686 4661.982 871.125 4661.668 "></path>
    <path id="STROKE_ce934959-2670-4dc5-a7d1-7ae60f77bcb8" opacity="1.000" fill="none" stroke="#000000" stroke-width="6.800" stroke-opacity="1.000" stroke-linecap="round" stroke-linejoin="round" d="M 942.578 4573.937 Q 942.577 4573.543 942.507 4571.859 Q 942.437 4570.176 942.465 4570.767 Q 942.492 4571.357 942.481 4571.007 Q 942.471 4570.656 942.475 4570.631 Q 942.479 4570.606 942.477 4570.094 Q 942.409 4570.094 942.341 4570.094 Q 942.640 4571.394 941.194 4580.517 Q 939.749 4589.639 939.187 4598.882 Q 938.624 4608.125 938.698 4613.136 Q 938.771 4618.146 938.754 4620.428 Q 938.737 4622.709 938.740 4624.099 Q 938.743 4625.489 938.792 4627.367 Q 938.842 4629.245 938.708 4629.962 Q 938.574 4630.679 940.006 4636.655 Q 941.438 4642.631 943.109 4648.689 Q 944.780 4654.748 946.634 4658.661 Q 948.488 4662.574 951.658 4664.652 Q 954.827 4666.729 958.760 4667.131 Q 962.693 4667.532 966.605 4667.014 Q 966.605 4666.950 966.639 4666.785 Q 966.673 4666.619 966.740 4666.352 "></path>
    <path id="STROKE_4e55d604-7101-4a28-82f6-67f7ed9e00bb" opacity="1.000" fill="none" stroke="#000000" stroke-width="6.800" stroke-opacity="1.000" stroke-linecap="round" stroke-linejoin="round" d="M 925.102 4609.824 Q 924.823 4609.360 924.815 4609.344 Q 924.807 4609.328 924.770 4609.298 Q 924.732 4609.269 924.705 4609.264 Q 924.678 4609.258 924.881 4609.136 Q 925.084 4609.015 926.722 4608.324 Q 928.361 4607.633 929.801 4607.303 Q 931.240 4606.973 931.315 4606.992 Q 931.390 4607.011 936.792 4605.634 Q 942.195 4604.256 948.232 4604.979 Q 954.269 4605.701 954.795 4606.235 "></path>
    <path id="STROKE_9d591626-60d0-44d4-9471-2fa4acaf0d62" opacity="1.000" fill="none" stroke="#000000" stroke-width="6.800" stroke-opacity="1.000" stroke-linecap="round" stroke-linejoin="round" d="M 987.109 4606.992 Q 987.226 4606.941 986.132 4607.198 Q 985.035 4606.856 986.023 4624.672 Q 987.011 4642.489 993.488 4667.341 Q 993.791 4667.092 993.286 4663.455 Q 992.782 4659.818 992.362 4658.831 "></path>
    <path id="STROKE_d990dc52-2ee4-4ef3-bb58-bf853e0ff90a" opacity="1.000" fill="none" stroke="#000000" stroke-width="6.800" stroke-opacity="1.000" stroke-linecap="round" stroke-linejoin="round" d="M 986.311 4586.659 Q 985.178 4586.514 985.529 4586.669 Q 985.880 4586.824 985.668 4586.769 Q 985.456 4586.714 983.893 4586.162 Q 982.331 4585.610 981.357 4584.541 Q 981.355 4584.614 981.532 4584.888 Q 981.709 4585.163 982.065 4585.639 "></path>
    <path id="STROKE_9737968a-2b28-4bab-9949-4862c30a64a7" opacity="1.000" fill="none" stroke="#000000" stroke-width="6.728" stroke-opacity="1.000" stroke-linecap="round" stroke-linejoin="round" d="M 1012.301 4616.002 Q 1011.849 4616.055 1014.142 4629.906 Q 1016.435 4643.758 1018.125 4652.677 Q 1019.816 4661.595 1022.536 4666.968 Q 1022.595 4666.963 1022.887 4666.939 Q 1023.282 4666.289 1022.785 4657.053 Q 1022.287 4647.816 1023.291 4608.808 Q 1025.312 4609.975 1029.122 4622.138 Q 1032.932 4634.301 1034.781 4640.961 Q 1036.630 4647.621 1037.403 4651.310 Q 1038.176 4654.999 1042.407 4662.969 Q 1043.402 4664.336 1044.069 4659.007 Q 1044.736 4653.679 1045.151 4647.701 Q 1045.566 4641.724 1046.128 4637.905 Q 1046.690 4634.086 1047.510 4631.721 Q 1048.329 4629.356 1049.504 4624.284 Q 1050.679 4619.211 1056.562 4607.863 Q 1058.150 4611.262 1057.885 4610.706 Q 1057.620 4610.149 1058.207 4613.281 Q 1058.794 4616.413 1059.484 4621.959 Q 1060.173 4627.506 1060.761 4631.179 Q 1061.348 4634.852 1062.057 4638.925 Q 1062.765 4642.999 1063.260 4645.635 Q 1063.756 4648.271 1064.196 4650.169 Q 1064.636 4652.067 1064.736 4654.368 Q 1064.836 4656.669 1068.797 4665.777 Q 1069.207 4665.744 1069.546 4665.662 Q 1069.885 4665.580 1070.329 4665.434 "></path>
    <path id="STROKE_ff4844e5-de07-4ca6-920d-a0d8f2350b0b" opacity="1.000" fill="none" stroke="#000000" stroke-width="6.800" stroke-opacity="1.000" stroke-linecap="round" stroke-linejoin="round" d="M 1093.448 4641.909 Q 1096.509 4641.647 1095.885 4641.642 Q 1097.796 4641.896 1103.794 4638.603 Q 1109.792 4635.310 1112.672 4632.549 Q 1115.552 4629.787 1116.370 4628.665 Q 1117.187 4627.543 1118.237 4624.157 Q 1119.287 4620.771 1118.922 4617.950 Q 1118.558 4615.128 1116.620 4613.639 Q 1114.682 4612.150 1113.097 4611.398 Q 1111.512 4610.646 1108.685 4610.345 Q 1105.859 4610.044 1101.435 4612.489 Q 1097.011 4614.935 1092.743 4620.402 Q 1088.475 4625.869 1086.749 4632.302 Q 1085.023 4638.734 1084.705 4642.374 Q 1084.388 4646.013 1086.413 4650.370 Q 1088.438 4654.728 1091.849 4658.242 Q 1095.260 4661.757 1101.494 4664.618 Q 1107.729 4667.480 1114.843 4667.743 Q 1121.958 4668.006 1126.021 4668.014 Q 1130.083 4668.021 1133.937 4667.371 Q 1137.790 4666.722 1141.091 4665.162 Q 1144.392 4663.603 1145.359 4662.903 "></path>
    <path id="STROKE_3f77af43-c4e0-489e-82aa-40d37fc78aa8" opacity="1.000" fill="none" stroke="#000000" stroke-width="6.800" stroke-opacity="1.000" stroke-linecap="round" stroke-linejoin="round" d="M 1174.261 4575.768 Q 1175.166 4574.418 1174.843 4574.673 Q 1174.767 4575.312 1175.096 4573.364 Q 1175.148 4573.367 1175.302 4573.424 Q 1175.459 4575.925 1175.360 4574.970 Q 1175.261 4574.016 1174.927 4581.734 Q 1174.593 4589.452 1175.446 4600.359 Q 1176.299 4611.267 1176.582 4616.682 Q 1176.864 4622.098 1176.857 4625.465 Q 1176.851 4628.832 1176.872 4632.427 Q 1176.892 4636.021 1177.037 4636.234 "></path>
    <path id="STROKE_3f716f1a-5433-4175-8bea-a23879629a98" opacity="1.000" fill="none" stroke="#000000" stroke-width="6.800" stroke-opacity="1.000" stroke-linecap="round" stroke-linejoin="round" d="M 1179.243 4659.293 Q 1179.317 4658.045 1179.259 4658.266 Q 1179.205 4658.786 1179.256 4655.660 Q 1179.337 4655.479 1178.149 4655.327 Q 1176.962 4655.175 1175.811 4656.135 Q 1174.660 4657.095 1174.331 4657.796 Q 1174.002 4658.498 1174.011 4658.573 Q 1174.020 4658.649 1174.013 4658.628 Q 1174.005 4658.607 1173.466 4661.627 Q 1172.927 4664.647 1174.235 4665.718 Q 1175.543 4666.788 1176.848 4666.993 Q 1178.152 4667.198 1179.834 4666.498 Q 1181.516 4665.798 1182.222 4664.004 Q 1182.928 4662.211 1182.849 4660.491 Q 1182.771 4658.771 1180.240 4657.862 Q 1177.709 4656.955 1175.963 4656.970 Q 1174.218 4656.984 1173.500 4657.376 Q 1172.782 4657.768 1172.673 4658.616 Q 1172.563 4659.465 1172.545 4659.304 Q 1172.528 4659.143 1172.469 4659.792 Q 1172.409 4660.440 1172.849 4660.795 Q 1173.288 4661.150 1174.428 4661.507 Q 1175.568 4661.864 1176.414 4661.969 Q 1177.260 4662.074 1177.880 4662.011 Q 1178.499 4661.947 1178.820 4661.817 "></path>
  </g>
</svg>