<?xml version="1.0" encoding="utf-8"?>
<svg viewBox="602.83 4539.281 149.817 136.88" xmlns="http://www.w3.org/2000/svg">
  <g id="Pen" opacity="1.000">
    <path id="STROKE_640959ed-d8a4-48a6-a489-6440aae3dcb5" opacity="1.000" fill="none" stroke="#000000" stroke-opacity="1.000" stroke-linecap="round" stroke-linejoin="round" d="M 664.496 4554.664 Q 664.687 4552.154 664.613 4552.934 Q 664.478 4551.364 661.625 4550.035 Q 658.772 4548.706 654.423 4548.178 Q 650.074 4547.650 645.787 4549.580 Q 641.500 4551.511 636.507 4557.144 Q 631.515 4562.776 626.759 4571.466 Q 622.003 4580.155 618.791 4588.962 Q 615.579 4597.769 614.720 4608.050 Q 613.862 4618.332 613.782 4624.352 Q 613.702 4630.372 615.015 4635.772 Q 616.328 4641.173 618.523 4646.686 Q 620.719 4652.199 623.864 4656.584 Q 627.010 4660.970 630.862 4663.546 Q 634.714 4666.122 644.769 4666.547 Q 654.824 4666.972 662.884 4664.040 Q 670.945 4661.108 671.807 4660.508 " style="vector-effect: non-scaling-stroke; stroke-width: 25px;"/>
    <path id="STROKE_ce934959-2670-4dc5-a7d1-7ae60f77bcb8" opacity="1.000" fill="none" stroke="#000000" stroke-opacity="1.000" stroke-linecap="round" stroke-linejoin="round" d="M 690.113 4573.24 C 690.113 4572.978 690.091 4572.285 690.047 4571.162 C 690.005 4570.04 689.992 4569.675 690.008 4570.07 C 690.025 4570.464 690.031 4570.543 690.023 4570.309 C 690.018 4570.076 690.016 4569.95 690.018 4569.934 C 690.02 4569.918 690.021 4569.738 690.019 4569.396 C 689.978 4569.396 689.936 4569.396 689.894 4569.396 C 690.079 4570.263 689.724 4573.737 688.832 4579.82 C 687.941 4585.901 687.322 4592.022 686.975 4598.185 C 686.628 4604.347 686.477 4609.099 686.522 4612.439 C 686.568 4615.779 686.585 4618.209 686.574 4619.73 C 686.564 4621.251 686.559 4622.476 686.561 4623.401 C 686.563 4624.328 686.58 4625.417 686.609 4626.669 C 686.641 4627.921 686.615 4628.786 686.532 4629.265 C 686.449 4629.742 686.85 4631.973 687.733 4635.958 C 688.617 4639.941 689.573 4643.953 690.604 4647.991 C 691.635 4652.031 692.722 4655.356 693.866 4657.963 C 695.01 4660.572 696.56 4662.57 698.515 4663.954 C 700.471 4665.339 702.661 4666.165 705.088 4666.433 C 707.514 4666.701 709.934 4666.662 712.347 4666.316 C 712.347 4666.274 712.358 4666.198 712.379 4666.088 C 712.4 4665.977 712.432 4665.832 712.472 4665.655" style="vector-effect: non-scaling-stroke; stroke-width: 25px;"/>
    <path id="STROKE_4e55d604-7101-4a28-82f6-67f7ed9e00bb" opacity="1.000" fill="none" stroke="#000000" stroke-opacity="1.000" stroke-linecap="round" stroke-linejoin="round" d="M 672.927 4609.126 C 672.741 4608.817 672.646 4608.657 672.64 4608.646 C 672.635 4608.636 672.62 4608.62 672.595 4608.6 C 672.57 4608.581 672.548 4608.57 672.53 4608.566 C 672.512 4608.562 672.571 4608.52 672.706 4608.438 C 672.842 4608.358 673.455 4608.087 674.547 4607.626 C 675.64 4607.166 676.666 4606.825 677.626 4606.605 C 678.586 4606.385 679.09 4606.282 679.14 4606.294 C 679.19 4606.307 681.016 4605.854 684.617 4604.936 C 688.219 4604.018 692.033 4603.799 696.057 4604.281 C 700.082 4604.763 702.27 4605.181 702.62 4605.537" style="vector-effect: non-scaling-stroke; stroke-width: 25px;"/>
    <path id="STROKE_3f77af43-c4e0-489e-82aa-40d37fc78aa8" opacity="1.000" fill="none" stroke="#000000" stroke-opacity="1.000" stroke-linecap="round" stroke-linejoin="round" d="M 733.391 4560.39 C 734.221 4559.241 734.488 4558.774 734.192 4558.992 C 734.122 4559.536 734.238 4558.979 734.541 4557.32 C 734.588 4557.322 734.683 4557.348 734.824 4557.396 C 734.968 4559.526 734.995 4560.185 734.904 4559.371 C 734.813 4558.559 734.614 4561.439 734.308 4568.011 C 734.001 4574.583 734.239 4582.515 735.023 4591.803 C 735.805 4601.092 736.327 4608.042 736.587 4612.654 C 736.846 4617.266 736.971 4621.005 736.966 4623.873 C 736.96 4626.741 736.967 4629.704 736.986 4632.766 C 737.004 4635.827 737.08 4637.448 737.213 4637.629" style="vector-effect: non-scaling-stroke; stroke-width: 25px;"/>
    <path id="STROKE_3f716f1a-5433-4175-8bea-a23879629a98" opacity="1.000" fill="none" stroke="#000000" stroke-opacity="1.000" stroke-linecap="round" stroke-linejoin="round" d="M 739.071 4658.944 C 739.12 4658.112 739.125 4657.77 739.087 4657.917 C 739.051 4658.264 739.05 4657.395 739.084 4655.311 C 739.138 4655.19 738.769 4655.079 737.977 4654.978 C 737.185 4654.877 736.406 4655.146 735.639 4655.786 C 734.871 4656.426 734.378 4656.98 734.159 4657.447 C 733.939 4657.915 733.833 4658.174 733.839 4658.224 C 733.845 4658.275 733.845 4658.293 733.841 4658.279 C 733.835 4658.265 733.653 4659.265 733.294 4661.278 C 732.934 4663.291 733.191 4664.655 734.063 4665.369 C 734.935 4666.082 735.806 4666.507 736.676 4666.644 C 737.545 4666.781 738.54 4666.616 739.662 4666.149 C 740.783 4665.682 741.579 4664.851 742.05 4663.655 C 742.52 4662.46 742.729 4661.289 742.677 4660.142 C 742.625 4658.995 741.755 4658.119 740.068 4657.513 C 738.38 4656.908 736.955 4656.611 735.791 4656.621 C 734.627 4656.63 733.806 4656.766 733.328 4657.027 C 732.849 4657.288 732.573 4657.702 732.501 4658.267 C 732.427 4658.833 732.385 4659.062 732.373 4658.955 C 732.361 4658.848 732.336 4659.01 732.297 4659.443 C 732.257 4659.875 732.383 4660.209 732.677 4660.446 C 732.969 4660.683 733.496 4660.92 734.256 4661.158 C 735.016 4661.396 735.678 4661.55 736.242 4661.62 C 736.806 4661.69 737.294 4661.704 737.708 4661.662 C 738.12 4661.619 738.434 4661.555 738.648 4661.468" style="vector-effect: non-scaling-stroke; stroke-width: 25px;"/>
  </g>
</svg>